<svg width="80" height="80" fill="none" xmlns="http://www.w3.org/2000/svg"><path d="M10 24a5 5 0 0 1 5-5h50a5 5 0 0 1 0 10H15a5 5 0 0 1-5-5ZM10 40a5 5 0 0 1 5-5h50a5 5 0 0 1 0 10H15a5 5 0 0 1-5-5ZM10 56a5 5 0 0 1 5-5h50a5 5 0 0 1 0 10H15a5 5 0 0 1-5-5Z" fill="#C10B7E"/><path fill-rule="evenodd" clip-rule="evenodd" d="M15 13h50c6.075 0 11 4.925 11 11a10.97 10.97 0 0 1-3.45 8A10.97 10.97 0 0 1 76 40a10.97 10.97 0 0 1-3.45 8A10.97 10.97 0 0 1 76 56c0 6.075-4.925 11-11 11H15C8.925 67 4 62.075 4 56c0-3.152 1.326-5.995 3.45-8A10.969 10.969 0 0 1 4 40c0-3.152 1.326-5.995 3.45-8A10.969 10.969 0 0 1 4 24c0-6.075 4.925-11 11-11Zm-5 11a5 5 0 0 1 5-5h50a5 5 0 0 1 0 10H15a5 5 0 0 1-5-5Zm0 16a5 5 0 0 1 5-5h50a5 5 0 0 1 0 10H15a5 5 0 0 1-5-5Zm5 11a5 5 0 0 0 0 10h50a5 5 0 0 0 0-10H15Z" fill="#fff"/></svg>