<svg width="80" height="80" fill="none" xmlns="http://www.w3.org/2000/svg"><path d="M18.535 60.962a5 5 0 0 0 7.072 0L39.749 46.82 53.89 60.962a5 5 0 1 0 7.071-7.071L46.82 39.749l14.142-14.142a5 5 0 0 0-7.071-7.071L39.749 32.678 25.607 18.536a5 5 0 0 0-7.071 7.07L32.678 39.75 18.536 53.89a5 5 0 0 0 0 7.071Z" fill="#C10B7E"/><path fill-rule="evenodd" clip-rule="evenodd" d="M49.648 14.293c4.296-4.296 11.26-4.296 15.557 0 4.295 4.296 4.295 11.26 0 15.556l-9.9 9.9 9.9 9.9c4.296 4.295 4.296 11.26 0 15.556-4.296 4.295-11.26 4.295-15.557 0l-9.9-9.9-9.899 9.9c-4.296 4.295-11.26 4.295-15.556 0-4.296-4.296-4.296-11.261 0-15.557l9.9-9.9-9.9-9.899c-4.296-4.296-4.296-11.26 0-15.556 4.296-4.296 11.26-4.296 15.556 0l9.9 9.9 9.9-9.9Zm4.243 4.243a5 5 0 1 1 7.07 7.07L46.82 39.75 60.962 53.89a5 5 0 1 1-7.07 7.07L39.748 46.82 25.607 60.962a5 5 0 0 1-7.072-7.071l14.143-14.142-14.142-14.142a5 5 0 0 1 7.07-7.072L39.75 32.678 53.89 18.536Z" fill="#fff"/></svg>