<svg xmlns="http://www.w3.org/2000/svg" fill="none" viewBox="0 0 80 80"><defs/><path fill="#6B6971" fill-rule="evenodd" d="M40 0C17.918 0 0 17.918 0 40s17.918 40 40 40c22.039 0 40-17.918 40-40S62.039 0 40 0zm26.42 18.438a34.01 34.01 0 017.723 21.258c-1.128-.217-12.408-2.516-23.774-1.084-.26-.564-.477-1.172-.738-1.779a101.679 101.679 0 00-2.256-4.946c12.582-5.12 18.308-12.494 19.046-13.449zM40 5.9c8.677 0 16.616 3.254 22.646 8.59-.607.868-5.77 7.766-17.917 12.321-5.597-10.282-11.8-18.698-12.755-20 2.56-.607 5.25-.91 8.026-.91zM25.466 9.11c.911 1.215 6.985 9.675 12.669 19.74-15.966 4.252-30.066 4.165-31.584 4.165 2.213-10.585 9.37-19.392 18.915-23.904zM5.813 40.044v-1.04c1.476.042 18.048.26 35.098-4.86.998 1.91 1.909 3.861 2.777 5.814-.434.13-.911.26-1.345.39-17.614 5.683-26.985 21.215-27.766 22.516-5.423-6.03-8.764-14.056-8.764-22.82zM40 74.187a33.928 33.928 0 01-20.954-7.202c.607-1.258 7.548-14.62 26.81-21.345.088-.043.131-.043.218-.087 4.815 12.451 6.768 22.907 7.288 25.9-4.121 1.78-8.633 2.734-13.362 2.734zm19.046-5.857c-.347-2.083-2.17-12.061-6.638-24.339 10.716-1.692 20.087 1.085 21.258 1.475-1.475 9.501-6.941 17.701-14.62 22.864z" clip-rule="evenodd"/></svg>