<svg xmlns="http://www.w3.org/2000/svg" fill="none" viewBox="0 0 80 80"><defs/><path fill="#6B6971" d="M25.158 72.502c30.19 0 46.701-25.011 46.701-46.7 0-.711 0-1.418-.048-2.122A33.396 33.396 0 0080 15.184a32.762 32.762 0 01-9.427 2.582 16.47 16.47 0 007.216-9.078 32.895 32.895 0 01-10.423 3.984 16.429 16.429 0 00-27.97 14.97 46.6 46.6 0 01-33.828-17.15 16.426 16.426 0 005.082 21.91A16.292 16.292 0 013.2 30.35v.207a16.419 16.419 0 0013.168 16.09 16.388 16.388 0 01-7.411.282A16.432 16.432 0 0024.29 58.326 32.934 32.934 0 010 65.13a46.467 46.467 0 0025.158 7.36"/></svg>