<svg version="1" xmlns="http://www.w3.org/2000/svg" width="213.333" height="213.333" viewBox="0 0 160.000000 160.000000"><path d="M118 21.7c-4.8.7-16 4.6-16 5.6 0 .6-.3.8-.6.4-1-1-8.2 3.8-15.6 10.3l-4.6 4.1-5.6-3.1c-3.1-1.8-5.6-2.8-5.6-2.3 0 .4-.4.3-.8-.3-1.7-2.4-16.4-7.8-24.7-9-13.7-2-20.6-.4-27.6 6.6C8.2 42.7 1 58 1 67.7 1 78.9 11.4 97 22 104.2c3 2.1 6 4.1 6.5 4.5.6.5 2.9 1.7 5.3 2.7 2.3 1.1 4.2 2.4 4.2 2.9 0 .6.3.7.6.4.4-.4 1.9 0 3.3.8 2.3 1.3 8.4 3.9 10.3 4.4 2.5.7 17.4 8.5 18 9.5.4.6.8.7.8.3 0-.4 3.4 1.5 7.5 4.3 4.1 2.7 7.7 5 8 5 .7 0 10.6-7.9 11.5-9.2 1.4-1.8 22.6-16.9 23.6-16.8.3.1 1.2-.7 2-1.7.7-1 1.4-1.5 1.4-1.1 0 1 6-4.2 15.6-13.7 7.3-7.3 9.8-10.6 13.2-17.5 5-10.2 6.9-20.1 5.2-27.5-1.3-5.9-4.9-14.5-6.1-14.5-.5 0-.9-.6-.9-1.3 0-1.6-6.2-7.7-7.8-7.7-.7 0-1.2-.4-1.2-.9 0-1.2-6.8-4.3-10-4.6-1.5-.1-3.1-.4-3.6-.8-1-.6-6.9-.6-11.4 0z"/></svg>